<svg width="27" height="27" viewBox="0 0 27 27" fill="none" xmlns="http://www.w3.org/2000/svg">
<g clip-path="url(#clip0)">
<path d="M23.6109 0.473715V14.586C23.6109 16.9368 21.6977 18.8492 19.3477 18.8492H4.1529L10.7539 12.2546C10.9377 12.0705 10.9377 11.7691 10.7539 11.585C10.5694 11.4008 10.2676 11.4008 10.0839 11.585L2.4425 19.2207L10.0831 26.8621C10.2668 27.0462 10.5682 27.0462 10.7527 26.8621C10.8464 26.7688 10.891 26.6475 10.891 26.5271C10.891 26.407 10.8448 26.2845 10.7527 26.1912L4.35853 19.7983H19.346C22.2181 19.7983 24.5571 17.4592 24.5571 14.5876V0.473715C24.5571 0.212511 24.3442 -1.93715e-05 24.0834 -1.93715e-05C23.8218 -1.93715e-05 23.6109 0.212917 23.6109 0.473715Z" fill="black"/>
</g>
<defs>
<clipPath id="clip0">
<rect width="27" height="27" fill="white" transform="translate(0 27) rotate(-90)"/>
</clipPath>
</defs>
</svg>
