<svg width="978" height="1163" viewBox="0 0 978 1163" fill="none" xmlns="http://www.w3.org/2000/svg">
<rect width="978" height="1163" fill="black"/>
<rect x="173" y="320" width="631" height="497" fill="white" stroke="black" stroke-width="60"/>
<mask id="mask0" style="mask-type:alpha" maskUnits="userSpaceOnUse" x="143" y="262" width="691" height="557">
<rect x="183" y="302" width="611" height="477" fill="#C4C4C4" stroke="black" stroke-width="80"/>
</mask>
<g mask="url(#mask0)">
<path d="M132.321 473.669C133.629 486.095 141.15 495.905 154.884 503.099C168.618 510.293 185.622 516.833 205.896 522.719C226.824 527.951 249.06 533.837 272.604 540.377C296.148 546.263 318.057 554.765 338.331 565.883C358.605 577.001 375.282 591.716 388.362 610.028C402.096 627.686 408.963 650.903 408.963 679.679C408.963 697.337 405.366 714.668 398.172 731.672C391.632 748.676 380.841 764.045 365.799 777.779C350.757 790.859 331.137 801.65 306.939 810.152C283.395 818.654 254.946 822.905 221.592 822.905C194.778 822.905 169.599 818.981 146.055 811.133C123.165 802.631 102.891 791.186 85.233 776.798C67.575 761.756 53.187 744.425 42.069 724.805C31.605 704.531 25.392 682.622 23.43 659.078H124.473C126.435 668.888 129.378 678.698 133.302 688.508C137.88 698.318 144.093 707.147 151.941 714.995C160.443 722.843 170.907 729.056 183.333 733.634C195.759 738.212 210.801 740.501 228.459 740.501C250.041 740.501 266.718 738.212 278.49 733.634C290.916 728.402 300.072 722.516 305.958 715.976C311.844 709.436 315.441 703.55 316.749 698.318C318.057 692.432 318.711 688.835 318.711 687.527C320.019 665.945 314.133 649.922 301.053 639.458C287.973 628.994 270.969 620.819 250.041 614.933C229.767 608.393 207.531 603.161 183.333 599.237C159.135 594.659 136.572 587.792 115.644 578.636C94.716 569.48 77.058 556.4 62.67 539.396C48.936 522.392 42.069 498.848 42.069 468.764C42.069 451.106 45.012 434.102 50.898 417.752C57.438 401.402 67.248 386.687 80.328 373.607C94.062 360.527 111.393 350.063 132.321 342.215C153.249 334.367 178.428 330.443 207.858 330.443C232.056 330.443 255.273 333.386 277.509 339.272C299.745 345.158 319.365 354.314 336.369 366.74C353.373 378.512 366.78 393.881 376.59 412.847C387.054 431.159 392.286 452.741 392.286 477.593H294.186C292.878 469.745 290.589 462.224 287.319 455.03C284.049 447.182 279.144 440.315 272.604 434.429C266.718 428.543 258.543 423.638 248.079 419.714C238.269 415.79 225.843 413.501 210.801 412.847C193.797 412.193 180.063 414.155 169.599 418.733C159.135 422.657 150.96 427.889 145.074 434.429C139.842 440.969 136.245 447.836 134.283 455.03C132.321 462.224 131.667 468.437 132.321 473.669ZM438.516 327.5H530.73V818H438.516V327.5ZM530.73 131.3V223.514H438.516V131.3H530.73ZM921.474 331.424H1017.61L885.177 818H693.882L561.447 331.424H657.585L766.476 725.786H813.564L921.474 331.424Z" fill="black"/>
</g>
<path d="M235.905 939.045C236.178 941.642 237.75 943.692 240.62 945.195C243.49 946.698 247.043 948.065 251.28 949.295C255.653 950.388 260.3 951.618 265.22 952.985C270.14 954.215 274.718 955.992 278.955 958.315C283.192 960.638 286.677 963.713 289.41 967.54C292.28 971.23 293.715 976.082 293.715 982.095C293.715 985.785 292.963 989.407 291.46 992.96C290.093 996.513 287.838 999.725 284.695 1002.59C281.552 1005.33 277.452 1007.58 272.395 1009.36C267.475 1011.14 261.53 1012.03 254.56 1012.03C248.957 1012.03 243.695 1011.21 238.775 1009.56C233.992 1007.79 229.755 1005.4 226.065 1002.39C222.375 999.247 219.368 995.625 217.045 991.525C214.858 987.288 213.56 982.71 213.15 977.79H234.265C234.675 979.84 235.29 981.89 236.11 983.94C237.067 985.99 238.365 987.835 240.005 989.475C241.782 991.115 243.968 992.413 246.565 993.37C249.162 994.327 252.305 994.805 255.995 994.805C260.505 994.805 263.99 994.327 266.45 993.37C269.047 992.277 270.96 991.047 272.19 989.68C273.42 988.313 274.172 987.083 274.445 985.99C274.718 984.76 274.855 984.008 274.855 983.735C275.128 979.225 273.898 975.877 271.165 973.69C268.432 971.503 264.878 969.795 260.505 968.565C256.268 967.198 251.622 966.105 246.565 965.285C241.508 964.328 236.793 962.893 232.42 960.98C228.047 959.067 224.357 956.333 221.35 952.78C218.48 949.227 217.045 944.307 217.045 938.02C217.045 934.33 217.66 930.777 218.89 927.36C220.257 923.943 222.307 920.868 225.04 918.135C227.91 915.402 231.532 913.215 235.905 911.575C240.278 909.935 245.54 909.115 251.69 909.115C256.747 909.115 261.598 909.73 266.245 910.96C270.892 912.19 274.992 914.103 278.545 916.7C282.098 919.16 284.9 922.372 286.95 926.335C289.137 930.162 290.23 934.672 290.23 939.865H269.73C269.457 938.225 268.978 936.653 268.295 935.15C267.612 933.51 266.587 932.075 265.22 930.845C263.99 929.615 262.282 928.59 260.095 927.77C258.045 926.95 255.448 926.472 252.305 926.335C248.752 926.198 245.882 926.608 243.695 927.565C241.508 928.385 239.8 929.478 238.57 930.845C237.477 932.212 236.725 933.647 236.315 935.15C235.905 936.653 235.768 937.952 235.905 939.045ZM340.425 991.73H382.45V1011H321.155V928.59H303.935V909.32H321.155V867.5H340.425V909.32H374.66V928.59H340.425V991.73ZM468.184 909.32H487.454V1011H404.224V909.32H423.494V991.73H468.184V909.32ZM588.491 1011.21L586.441 999.93H585.826C582.682 1002.94 578.309 1005.6 572.706 1007.92C567.239 1010.11 561.567 1011.21 555.691 1011.21C550.224 1011.21 544.621 1010.73 538.881 1009.77C533.277 1008.68 528.152 1006.35 523.506 1002.8C518.996 999.247 515.237 994.122 512.231 987.425C509.361 980.728 507.926 971.708 507.926 960.365C507.926 949.022 509.361 940.002 512.231 933.305C515.101 926.608 518.859 921.483 523.506 917.93C528.152 914.377 533.277 912.053 538.881 910.96C544.621 909.867 550.224 909.32 555.691 909.32C562.251 909.32 568.264 910.345 573.731 912.395C579.334 914.445 583.161 917.042 585.211 920.185H585.621V867.5H604.891V1011.21H588.491ZM556.511 991.935C560.884 991.935 564.779 991.662 568.196 991.115C571.749 990.568 574.756 989.27 577.216 987.22C579.676 985.033 581.521 981.822 582.751 977.585C584.117 973.212 584.801 967.267 584.801 959.75C584.801 953.053 584.254 947.723 583.161 943.76C582.067 939.66 580.359 936.517 578.036 934.33C575.849 932.007 572.911 930.503 569.221 929.82C565.667 929 561.431 928.59 556.511 928.59C551.591 928.59 547.354 929 543.801 929.82C540.247 930.503 537.309 932.007 534.986 934.33C532.799 936.517 531.159 939.66 530.066 943.76C528.972 947.723 528.426 953.053 528.426 959.75C528.426 967.267 529.041 973.212 530.271 977.585C531.637 981.822 533.482 985.033 535.806 987.22C538.266 989.27 541.204 990.568 544.621 991.115C548.174 991.662 552.137 991.935 556.511 991.935ZM629.436 908.5H648.706V1011H629.436V908.5ZM648.706 867.5V886.77H629.436V867.5H648.706ZM717.035 909.32C722.639 909.32 728.242 909.867 733.845 910.96C739.449 912.053 744.505 914.377 749.015 917.93C753.662 921.347 757.42 926.403 760.29 933.1C763.16 939.797 764.595 948.817 764.595 960.16C764.595 971.503 763.16 980.523 760.29 987.22C757.42 993.917 753.662 999.042 749.015 1002.59C744.505 1006.15 739.449 1008.47 733.845 1009.56C728.242 1010.66 722.639 1011.21 717.035 1011.21C711.569 1011.21 705.965 1010.66 700.225 1009.56C694.622 1008.47 689.497 1006.15 684.85 1002.59C680.34 999.042 676.65 993.917 673.78 987.22C670.91 980.523 669.475 971.503 669.475 960.16C669.475 948.817 670.91 939.797 673.78 933.1C676.65 926.403 680.34 921.347 684.85 917.93C689.497 914.377 694.622 912.053 700.225 910.96C705.965 909.867 711.569 909.32 717.035 909.32ZM717.035 991.935C721.409 991.935 725.304 991.662 728.72 991.115C732.274 990.568 735.212 989.27 737.535 987.22C739.995 985.033 741.84 981.753 743.07 977.38C744.437 973.007 745.12 967.062 745.12 959.545C745.12 952.848 744.574 947.518 743.48 943.555C742.387 939.455 740.679 936.312 738.355 934.125C736.169 931.938 733.299 930.503 729.745 929.82C726.192 929 721.955 928.59 717.035 928.59C712.115 928.59 707.81 929 704.12 929.82C700.567 930.503 697.629 931.938 695.305 934.125C693.119 936.312 691.479 939.455 690.385 943.555C689.292 947.518 688.745 952.848 688.745 959.545C688.745 967.062 689.36 973.007 690.59 977.38C691.957 981.753 693.87 985.033 696.33 987.22C698.79 989.27 701.729 990.568 705.145 991.115C708.699 991.662 712.662 991.935 717.035 991.935Z" fill="white"/>
</svg>
