<svg width="27" height="29" viewBox="0 0 27 29" fill="none" xmlns="http://www.w3.org/2000/svg">
<path d="M1.15529 0.508821V15.6663C1.15529 18.1912 3.49112 20.2453 6.36028 20.2453H24.9118L16.8525 13.1623C16.6281 12.9645 16.6281 12.6408 16.8525 12.443C17.0778 12.2453 17.4462 12.2453 17.6705 12.443L27 20.6443L17.6715 28.8517C17.4472 29.0494 17.0793 29.0494 16.854 28.8517C16.7396 28.7515 16.6851 28.6212 16.6851 28.4918C16.6851 28.3629 16.7415 28.2313 16.854 28.1311L24.6607 21.2646H6.36226C2.85579 21.2646 -2.82449e-07 18.7523 -2.82449e-07 15.668V0.508821C-2.82449e-07 0.228273 0.259978 1.39648e-07 0.578389 1.39648e-07C0.897789 1.39648e-07 1.15529 0.228708 1.15529 0.508821Z" fill="black"/>
</svg>
